<?xml version="1.0" encoding="utf-8"?>
<svg class="icon-loading" xmlns="http://www.w3.org/2000/svg" viewBox="0 0 500 500" xmlns:bx="https://boxy-svg.com" width="500px" height="500px">
  <defs>
    <bx:export>
      <bx:file format="svg" href="#object-2" path="Sin título 3.svg"/>
      <bx:file format="svg" href="#object-3" path="Sin título 4.svg"/>
      <bx:file format="svg" href="#object-4" path="Sin título 5.svg"/>
      <bx:file format="svg" path="Sin título.svg"/>
    </bx:export>
  </defs>
  <path class="icon-back" d="M 415.159 154.646 L 415.159 345.355 L 250 440.709 L 84.841 345.355 L 84.841 154.646 L 250 59.291 L 415.159 154.646 Z M 92.683 159.173 L 92.683 340.827 L 250 431.655 L 407.317 340.827 L 407.317 159.173 L 250 68.345 L 92.683 159.173 Z" style="fill: rgb(77, 77, 77);"/>
  <path class="icon-p-black" id="object-2" d="M 407.44 340.833 L 249.948 431.627 L 249.91 373.847 L 246.747 373.847 C 232.312 373.847 220.609 362.145 220.609 347.709 L 220.609 332.101 C 220.61 317.665 232.312 305.962 246.748 305.962 L 249.867 305.962 L 249.831 250.025 L 249.883 250.056 L 295.055 223.924 L 297.345 227.993 C 304.427 240.573 320.364 245.03 332.945 237.949 L 346.546 230.293 C 359.126 223.211 363.583 207.273 356.502 194.693 L 353.82 189.929 L 374.466 177.985 L 407.324 159.043 L 407.44 340.833 Z" style="stroke: rgb(0, 0, 0); fill: rgb(39, 33, 33); stroke-width: 0px;">
    <title>pieza negra</title>
  </path>
  <path class="icon-p-white" id="object-3" d="M 92.522 340.864 L 92.674 159.136 L 147.516 190.738 C 155.118 178.846 170.856 175.109 183.02 182.435 L 196.39 190.488 C 208.175 197.585 212.349 212.505 206.271 224.595 L 250.131 249.869 L 250.131 249.912 L 249.883 250.056 L 249.831 250.025 L 249.867 305.962 L 246.748 305.962 C 232.312 305.962 220.61 317.665 220.609 332.101 L 220.609 347.709 C 220.609 362.145 232.312 373.847 246.747 373.847 L 249.91 373.847 L 249.948 431.578 L 92.522 340.864 Z" style="stroke: rgb(0, 0, 0); fill: rgb(236, 236, 236); stroke-width: 0px;">
    <title>pieza blanca</title>
  </path>
  <path class="icon-p-orange" id="object-4" d="M 346.546 230.293 L 332.945 237.949 C 320.364 245.03 304.427 240.573 297.345 227.993 L 295.055 223.924 L 249.883 250.056 L 249.831 250.025 L 249.883 250.056 L 250.131 249.912 L 250.131 249.869 L 206.271 224.595 C 212.349 212.505 208.175 197.585 196.39 190.488 L 183.02 182.435 C 170.856 175.109 155.118 178.846 147.516 190.738 L 103.47 165.357 L 92.656 159.101 L 249.883 68.147 L 407.111 159.101 L 353.82 189.929 L 356.502 194.693 C 363.583 207.273 359.126 223.211 346.546 230.293 Z" style="stroke: rgb(0, 0, 0); stroke-width: 0px; fill: rgb(225, 100, 40);">
    <title>pieza naranja</title>
  </path>
</svg>